<svg width="512" height="512" viewBox="0 0 512 512" fill="none" xmlns="http://www.w3.org/2000/svg">
  <rect width="512" height="512" rx="128" fill="black"/>
  <rect x="20" y="20" width="472" height="472" rx="118" stroke="#dc2626" stroke-width="8"/>
  <path d="M256 120C180.891 120 120 180.891 120 256C120 331.109 180.891 392 256 392C331.109 392 392 331.109 392 256C392 180.891 331.109 120 256 120ZM256 360C198.56 360 152 313.44 152 256C152 198.56 198.56 152 256 152C313.44 152 360 198.56 360 256C360 313.44 313.44 360 256 360Z" fill="#dc2626"/>
  <path d="M256 184V224M256 288V328M184 256H224M288 256H328" stroke="white" stroke-width="12" stroke-linecap="round"/>
  <circle cx="256" cy="256" r="32" fill="white"/>
</svg>
